<svg xmlns="http://www.w3.org/2000/svg" viewBox="0 0 900 420" width="900" height="420">
<defs><linearGradient id="tbg" x1="0%" y1="0%" x2="0%" y2="100%">
<stop offset="0%" stop-color="#0d1117"/><stop offset="100%" stop-color="#161b22"/>
</linearGradient></defs>
<rect width="900" height="420" rx="12" fill="url(#tbg)"/>
<text x="450.0" y="28" text-anchor="middle" fill="#e6edf3" font-size="16" font-weight="bold">Awesome Embodied AI 收录趋势</text>
<text x="450.0" y="46" text-anchor="middle" fill="#8b949e" font-size="12">总收录 3793 · 累计新增 3793 · Stars 2,645,876</text>
<text x="62" y="340.0" text-anchor="end" fill="#8b949e" font-size="11" dominant-baseline="middle">0</text>
<line x1="70" y1="340.0" x2="870" y2="340.0" stroke="#21262d" stroke-dasharray="4 4"/>
<text x="62" y="268.8" text-anchor="end" fill="#8b949e" font-size="11" dominant-baseline="middle">948</text>
<line x1="70" y1="268.8" x2="870" y2="268.8" stroke="#21262d" stroke-dasharray="4 4"/>
<text x="62" y="197.5" text-anchor="end" fill="#8b949e" font-size="11" dominant-baseline="middle">1896</text>
<line x1="70" y1="197.5" x2="870" y2="197.5" stroke="#21262d" stroke-dasharray="4 4"/>
<text x="62" y="126.3" text-anchor="end" fill="#8b949e" font-size="11" dominant-baseline="middle">2844</text>
<line x1="70" y1="126.3" x2="870" y2="126.3" stroke="#21262d" stroke-dasharray="4 4"/>
<text x="62" y="55.0" text-anchor="end" fill="#8b949e" font-size="11" dominant-baseline="middle">3793</text>
<line x1="70" y1="55.0" x2="870" y2="55.0" stroke="#21262d" stroke-dasharray="4 4"/>

<line x1="70" y1="55" x2="70" y2="340" stroke="#30363d"/>
<line x1="70" y1="340" x2="870" y2="340" stroke="#30363d"/>
<path d="M70.0,106.2 L110.0,98.4 L150.0,95.4 L190.0,92.9 L230.0,89.5 L270.0,85.8 L310.0,83.4 L350.0,81.4 L390.0,79.7 L430.0,77.5 L470.0,75.4 L510.0,73.9 L550.0,72.0 L590.0,70.3 L630.0,68.6 L670.0,66.6 L710.0,63.6 L750.0,61.5 L790.0,59.1 L830.0,57.1 L870.0,55.0 L870.0,340 L70.0,340 Z" fill="#58a6ff" opacity="0.12"/>
<polyline points="70.0,106.2 110.0,98.4 150.0,95.4 190.0,92.9 230.0,89.5 270.0,85.8 310.0,83.4 350.0,81.4 390.0,79.7 430.0,77.5 470.0,75.4 510.0,73.9 550.0,72.0 590.0,70.3 630.0,68.6 670.0,66.6 710.0,63.6 750.0,61.5 790.0,59.1 830.0,57.1 870.0,55.0" fill="none" stroke="#58a6ff" stroke-width="2.5" stroke-linecap="round" stroke-linejoin="round"/>
<circle cx="70.0" cy="106.2" r="3" fill="#58a6ff" stroke="#0d1117" stroke-width="1.5"/>
<circle cx="110.0" cy="98.4" r="3" fill="#58a6ff" stroke="#0d1117" stroke-width="1.5"/>
<circle cx="150.0" cy="95.4" r="3" fill="#58a6ff" stroke="#0d1117" stroke-width="1.5"/>
<circle cx="190.0" cy="92.9" r="3" fill="#58a6ff" stroke="#0d1117" stroke-width="1.5"/>
<circle cx="230.0" cy="89.5" r="3" fill="#58a6ff" stroke="#0d1117" stroke-width="1.5"/>
<circle cx="270.0" cy="85.8" r="3" fill="#58a6ff" stroke="#0d1117" stroke-width="1.5"/>
<circle cx="310.0" cy="83.4" r="3" fill="#58a6ff" stroke="#0d1117" stroke-width="1.5"/>
<circle cx="350.0" cy="81.4" r="3" fill="#58a6ff" stroke="#0d1117" stroke-width="1.5"/>
<circle cx="390.0" cy="79.7" r="3" fill="#58a6ff" stroke="#0d1117" stroke-width="1.5"/>
<circle cx="430.0" cy="77.5" r="3" fill="#58a6ff" stroke="#0d1117" stroke-width="1.5"/>
<circle cx="470.0" cy="75.4" r="3" fill="#58a6ff" stroke="#0d1117" stroke-width="1.5"/>
<circle cx="510.0" cy="73.9" r="3" fill="#58a6ff" stroke="#0d1117" stroke-width="1.5"/>
<circle cx="550.0" cy="72.0" r="3" fill="#58a6ff" stroke="#0d1117" stroke-width="1.5"/>
<circle cx="590.0" cy="70.3" r="3" fill="#58a6ff" stroke="#0d1117" stroke-width="1.5"/>
<circle cx="630.0" cy="68.6" r="3" fill="#58a6ff" stroke="#0d1117" stroke-width="1.5"/>
<circle cx="670.0" cy="66.6" r="3" fill="#58a6ff" stroke="#0d1117" stroke-width="1.5"/>
<circle cx="710.0" cy="63.6" r="3" fill="#58a6ff" stroke="#0d1117" stroke-width="1.5"/>
<circle cx="750.0" cy="61.5" r="3" fill="#58a6ff" stroke="#0d1117" stroke-width="1.5"/>
<circle cx="790.0" cy="59.1" r="3" fill="#58a6ff" stroke="#0d1117" stroke-width="1.5"/>
<circle cx="830.0" cy="57.1" r="3" fill="#58a6ff" stroke="#0d1117" stroke-width="1.5"/>
<circle cx="870.0" cy="55.0" r="3" fill="#58a6ff" stroke="#0d1117" stroke-width="1.5"/>
<path d="M70.0,55.0 L110.0,330.6 L150.0,336.3 L190.0,337.0 L230.0,335.8 L270.0,335.5 L310.0,337.1 L350.0,337.6 L390.0,337.9 L430.0,337.3 L470.0,337.4 L510.0,338.3 L550.0,337.6 L590.0,338.0 L630.0,337.9 L670.0,337.5 L710.0,336.4 L750.0,337.4 L790.0,337.0 L830.0,337.6 L870.0,337.4 L870.0,340 L70.0,340 Z" fill="#3fb950" opacity="0.12"/>
<polyline points="70.0,55.0 110.0,330.6 150.0,336.3 190.0,337.0 230.0,335.8 270.0,335.5 310.0,337.1 350.0,337.6 390.0,337.9 430.0,337.3 470.0,337.4 510.0,338.3 550.0,337.6 590.0,338.0 630.0,337.9 670.0,337.5 710.0,336.4 750.0,337.4 790.0,337.0 830.0,337.6 870.0,337.4" fill="none" stroke="#3fb950" stroke-width="2.5" stroke-linecap="round" stroke-linejoin="round"/>
<circle cx="70.0" cy="55.0" r="3" fill="#3fb950" stroke="#0d1117" stroke-width="1.5"/>
<circle cx="110.0" cy="330.6" r="3" fill="#3fb950" stroke="#0d1117" stroke-width="1.5"/>
<circle cx="150.0" cy="336.3" r="3" fill="#3fb950" stroke="#0d1117" stroke-width="1.5"/>
<circle cx="190.0" cy="337.0" r="3" fill="#3fb950" stroke="#0d1117" stroke-width="1.5"/>
<circle cx="230.0" cy="335.8" r="3" fill="#3fb950" stroke="#0d1117" stroke-width="1.5"/>
<circle cx="270.0" cy="335.5" r="3" fill="#3fb950" stroke="#0d1117" stroke-width="1.5"/>
<circle cx="310.0" cy="337.1" r="3" fill="#3fb950" stroke="#0d1117" stroke-width="1.5"/>
<circle cx="350.0" cy="337.6" r="3" fill="#3fb950" stroke="#0d1117" stroke-width="1.5"/>
<circle cx="390.0" cy="337.9" r="3" fill="#3fb950" stroke="#0d1117" stroke-width="1.5"/>
<circle cx="430.0" cy="337.3" r="3" fill="#3fb950" stroke="#0d1117" stroke-width="1.5"/>
<circle cx="470.0" cy="337.4" r="3" fill="#3fb950" stroke="#0d1117" stroke-width="1.5"/>
<circle cx="510.0" cy="338.3" r="3" fill="#3fb950" stroke="#0d1117" stroke-width="1.5"/>
<circle cx="550.0" cy="337.6" r="3" fill="#3fb950" stroke="#0d1117" stroke-width="1.5"/>
<circle cx="590.0" cy="338.0" r="3" fill="#3fb950" stroke="#0d1117" stroke-width="1.5"/>
<circle cx="630.0" cy="337.9" r="3" fill="#3fb950" stroke="#0d1117" stroke-width="1.5"/>
<circle cx="670.0" cy="337.5" r="3" fill="#3fb950" stroke="#0d1117" stroke-width="1.5"/>
<circle cx="710.0" cy="336.4" r="3" fill="#3fb950" stroke="#0d1117" stroke-width="1.5"/>
<circle cx="750.0" cy="337.4" r="3" fill="#3fb950" stroke="#0d1117" stroke-width="1.5"/>
<circle cx="790.0" cy="337.0" r="3" fill="#3fb950" stroke="#0d1117" stroke-width="1.5"/>
<circle cx="830.0" cy="337.6" r="3" fill="#3fb950" stroke="#0d1117" stroke-width="1.5"/>
<circle cx="870.0" cy="337.4" r="3" fill="#3fb950" stroke="#0d1117" stroke-width="1.5"/>
<text x="70.0" y="390" text-anchor="middle" fill="#8b949e" font-size="11">03-01</text>
<text x="190.0" y="390" text-anchor="middle" fill="#8b949e" font-size="11">03-13</text>
<text x="310.0" y="390" text-anchor="middle" fill="#8b949e" font-size="11">04-03</text>
<text x="430.0" y="390" text-anchor="middle" fill="#8b949e" font-size="11">04-24</text>
<text x="550.0" y="390" text-anchor="middle" fill="#8b949e" font-size="11">05-15</text>
<text x="670.0" y="390" text-anchor="middle" fill="#8b949e" font-size="11">06-05</text>
<text x="790.0" y="390" text-anchor="middle" fill="#8b949e" font-size="11">06-26</text>

<rect x="640" y="402" width="12" height="12" rx="2" fill="#58a6ff"/>
<text x="656" y="412" fill="#8b949e" font-size="11">总数</text>
<rect x="750" y="402" width="12" height="12" rx="2" fill="#3fb950"/>
<text x="766" y="412" fill="#8b949e" font-size="11">每周新增</text>
</svg>