<svg xmlns="http://www.w3.org/2000/svg" viewBox="0 0 900 420" width="900" height="420">
<defs><linearGradient id="tbg" x1="0%" y1="0%" x2="0%" y2="100%">
<stop offset="0%" stop-color="#0d1117"/><stop offset="100%" stop-color="#161b22"/>
</linearGradient></defs>
<rect width="900" height="420" rx="12" fill="url(#tbg)"/>
<text x="450.0" y="28" text-anchor="middle" fill="#e6edf3" font-size="16" font-weight="bold">Awesome Embodied AI 收录趋势</text>
<text x="450.0" y="46" text-anchor="middle" fill="#8b949e" font-size="12">总收录 3739 · 累计新增 3739 · Stars 2,631,198</text>
<text x="62" y="340.0" text-anchor="end" fill="#8b949e" font-size="11" dominant-baseline="middle">0</text>
<line x1="70" y1="340.0" x2="870" y2="340.0" stroke="#21262d" stroke-dasharray="4 4"/>
<text x="62" y="268.8" text-anchor="end" fill="#8b949e" font-size="11" dominant-baseline="middle">934</text>
<line x1="70" y1="268.8" x2="870" y2="268.8" stroke="#21262d" stroke-dasharray="4 4"/>
<text x="62" y="197.5" text-anchor="end" fill="#8b949e" font-size="11" dominant-baseline="middle">1869</text>
<line x1="70" y1="197.5" x2="870" y2="197.5" stroke="#21262d" stroke-dasharray="4 4"/>
<text x="62" y="126.3" text-anchor="end" fill="#8b949e" font-size="11" dominant-baseline="middle">2804</text>
<line x1="70" y1="126.3" x2="870" y2="126.3" stroke="#21262d" stroke-dasharray="4 4"/>
<text x="62" y="55.0" text-anchor="end" fill="#8b949e" font-size="11" dominant-baseline="middle">3739</text>
<line x1="70" y1="55.0" x2="870" y2="55.0" stroke="#21262d" stroke-dasharray="4 4"/>

<line x1="70" y1="55" x2="70" y2="340" stroke="#30363d"/>
<line x1="70" y1="340" x2="870" y2="340" stroke="#30363d"/>
<path d="M70.0,102.8 L114.4,94.9 L158.9,91.9 L203.3,89.4 L247.8,85.9 L292.2,82.1 L336.7,79.7 L381.1,77.7 L425.6,76.0 L470.0,73.7 L514.4,71.5 L558.9,70.1 L603.3,68.1 L647.8,66.4 L692.2,64.7 L736.7,62.6 L781.1,59.6 L825.6,57.5 L870.0,55.0 L870.0,340 L70.0,340 Z" fill="#58a6ff" opacity="0.12"/>
<polyline points="70.0,102.8 114.4,94.9 158.9,91.9 203.3,89.4 247.8,85.9 292.2,82.1 336.7,79.7 381.1,77.7 425.6,76.0 470.0,73.7 514.4,71.5 558.9,70.1 603.3,68.1 647.8,66.4 692.2,64.7 736.7,62.6 781.1,59.6 825.6,57.5 870.0,55.0" fill="none" stroke="#58a6ff" stroke-width="2.5" stroke-linecap="round" stroke-linejoin="round"/>
<circle cx="70.0" cy="102.8" r="3" fill="#58a6ff" stroke="#0d1117" stroke-width="1.5"/>
<circle cx="114.4" cy="94.9" r="3" fill="#58a6ff" stroke="#0d1117" stroke-width="1.5"/>
<circle cx="158.9" cy="91.9" r="3" fill="#58a6ff" stroke="#0d1117" stroke-width="1.5"/>
<circle cx="203.3" cy="89.4" r="3" fill="#58a6ff" stroke="#0d1117" stroke-width="1.5"/>
<circle cx="247.8" cy="85.9" r="3" fill="#58a6ff" stroke="#0d1117" stroke-width="1.5"/>
<circle cx="292.2" cy="82.1" r="3" fill="#58a6ff" stroke="#0d1117" stroke-width="1.5"/>
<circle cx="336.7" cy="79.7" r="3" fill="#58a6ff" stroke="#0d1117" stroke-width="1.5"/>
<circle cx="381.1" cy="77.7" r="3" fill="#58a6ff" stroke="#0d1117" stroke-width="1.5"/>
<circle cx="425.6" cy="76.0" r="3" fill="#58a6ff" stroke="#0d1117" stroke-width="1.5"/>
<circle cx="470.0" cy="73.7" r="3" fill="#58a6ff" stroke="#0d1117" stroke-width="1.5"/>
<circle cx="514.4" cy="71.5" r="3" fill="#58a6ff" stroke="#0d1117" stroke-width="1.5"/>
<circle cx="558.9" cy="70.1" r="3" fill="#58a6ff" stroke="#0d1117" stroke-width="1.5"/>
<circle cx="603.3" cy="68.1" r="3" fill="#58a6ff" stroke="#0d1117" stroke-width="1.5"/>
<circle cx="647.8" cy="66.4" r="3" fill="#58a6ff" stroke="#0d1117" stroke-width="1.5"/>
<circle cx="692.2" cy="64.7" r="3" fill="#58a6ff" stroke="#0d1117" stroke-width="1.5"/>
<circle cx="736.7" cy="62.6" r="3" fill="#58a6ff" stroke="#0d1117" stroke-width="1.5"/>
<circle cx="781.1" cy="59.6" r="3" fill="#58a6ff" stroke="#0d1117" stroke-width="1.5"/>
<circle cx="825.6" cy="57.5" r="3" fill="#58a6ff" stroke="#0d1117" stroke-width="1.5"/>
<circle cx="870.0" cy="55.0" r="3" fill="#58a6ff" stroke="#0d1117" stroke-width="1.5"/>
<path d="M70.0,55.0 L114.4,330.6 L158.9,336.3 L203.3,337.0 L247.8,335.8 L292.2,335.5 L336.7,337.1 L381.1,337.6 L425.6,337.9 L470.0,337.3 L514.4,337.4 L558.9,338.3 L603.3,337.6 L647.8,338.0 L692.2,337.9 L736.7,337.5 L781.1,336.4 L825.6,337.4 L870.0,337.0 L870.0,340 L70.0,340 Z" fill="#3fb950" opacity="0.12"/>
<polyline points="70.0,55.0 114.4,330.6 158.9,336.3 203.3,337.0 247.8,335.8 292.2,335.5 336.7,337.1 381.1,337.6 425.6,337.9 470.0,337.3 514.4,337.4 558.9,338.3 603.3,337.6 647.8,338.0 692.2,337.9 736.7,337.5 781.1,336.4 825.6,337.4 870.0,337.0" fill="none" stroke="#3fb950" stroke-width="2.5" stroke-linecap="round" stroke-linejoin="round"/>
<circle cx="70.0" cy="55.0" r="3" fill="#3fb950" stroke="#0d1117" stroke-width="1.5"/>
<circle cx="114.4" cy="330.6" r="3" fill="#3fb950" stroke="#0d1117" stroke-width="1.5"/>
<circle cx="158.9" cy="336.3" r="3" fill="#3fb950" stroke="#0d1117" stroke-width="1.5"/>
<circle cx="203.3" cy="337.0" r="3" fill="#3fb950" stroke="#0d1117" stroke-width="1.5"/>
<circle cx="247.8" cy="335.8" r="3" fill="#3fb950" stroke="#0d1117" stroke-width="1.5"/>
<circle cx="292.2" cy="335.5" r="3" fill="#3fb950" stroke="#0d1117" stroke-width="1.5"/>
<circle cx="336.7" cy="337.1" r="3" fill="#3fb950" stroke="#0d1117" stroke-width="1.5"/>
<circle cx="381.1" cy="337.6" r="3" fill="#3fb950" stroke="#0d1117" stroke-width="1.5"/>
<circle cx="425.6" cy="337.9" r="3" fill="#3fb950" stroke="#0d1117" stroke-width="1.5"/>
<circle cx="470.0" cy="337.3" r="3" fill="#3fb950" stroke="#0d1117" stroke-width="1.5"/>
<circle cx="514.4" cy="337.4" r="3" fill="#3fb950" stroke="#0d1117" stroke-width="1.5"/>
<circle cx="558.9" cy="338.3" r="3" fill="#3fb950" stroke="#0d1117" stroke-width="1.5"/>
<circle cx="603.3" cy="337.6" r="3" fill="#3fb950" stroke="#0d1117" stroke-width="1.5"/>
<circle cx="647.8" cy="338.0" r="3" fill="#3fb950" stroke="#0d1117" stroke-width="1.5"/>
<circle cx="692.2" cy="337.9" r="3" fill="#3fb950" stroke="#0d1117" stroke-width="1.5"/>
<circle cx="736.7" cy="337.5" r="3" fill="#3fb950" stroke="#0d1117" stroke-width="1.5"/>
<circle cx="781.1" cy="336.4" r="3" fill="#3fb950" stroke="#0d1117" stroke-width="1.5"/>
<circle cx="825.6" cy="337.4" r="3" fill="#3fb950" stroke="#0d1117" stroke-width="1.5"/>
<circle cx="870.0" cy="337.0" r="3" fill="#3fb950" stroke="#0d1117" stroke-width="1.5"/>
<text x="70.0" y="390" text-anchor="middle" fill="#8b949e" font-size="11">03-01</text>
<text x="158.9" y="390" text-anchor="middle" fill="#8b949e" font-size="11">03-06</text>
<text x="247.8" y="390" text-anchor="middle" fill="#8b949e" font-size="11">03-20</text>
<text x="336.7" y="390" text-anchor="middle" fill="#8b949e" font-size="11">04-03</text>
<text x="425.6" y="390" text-anchor="middle" fill="#8b949e" font-size="11">04-17</text>
<text x="514.4" y="390" text-anchor="middle" fill="#8b949e" font-size="11">05-01</text>
<text x="603.3" y="390" text-anchor="middle" fill="#8b949e" font-size="11">05-15</text>
<text x="692.2" y="390" text-anchor="middle" fill="#8b949e" font-size="11">05-29</text>
<text x="781.1" y="390" text-anchor="middle" fill="#8b949e" font-size="11">06-12</text>
<text x="870.0" y="390" text-anchor="middle" fill="#8b949e" font-size="11">06-26</text>

<rect x="640" y="402" width="12" height="12" rx="2" fill="#58a6ff"/>
<text x="656" y="412" fill="#8b949e" font-size="11">总数</text>
<rect x="750" y="402" width="12" height="12" rx="2" fill="#3fb950"/>
<text x="766" y="412" fill="#8b949e" font-size="11">每周新增</text>
</svg>