<svg xmlns="http://www.w3.org/2000/svg" viewBox="0 0 900 420" width="900" height="420">
<defs><linearGradient id="tbg" x1="0%" y1="0%" x2="0%" y2="100%">
<stop offset="0%" stop-color="#0d1117"/><stop offset="100%" stop-color="#161b22"/>
</linearGradient></defs>
<rect width="900" height="420" rx="12" fill="url(#tbg)"/>
<text x="450.0" y="28" text-anchor="middle" fill="#e6edf3" font-size="16" font-weight="bold">Awesome Embodied AI 收录趋势</text>
<text x="450.0" y="46" text-anchor="middle" fill="#8b949e" font-size="12">总收录 4003 · 累计新增 4003 · Stars 2,718,885</text>
<text x="62" y="340.0" text-anchor="end" fill="#8b949e" font-size="11" dominant-baseline="middle">0</text>
<line x1="70" y1="340.0" x2="870" y2="340.0" stroke="#21262d" stroke-dasharray="4 4"/>
<text x="62" y="268.8" text-anchor="end" fill="#8b949e" font-size="11" dominant-baseline="middle">1000</text>
<line x1="70" y1="268.8" x2="870" y2="268.8" stroke="#21262d" stroke-dasharray="4 4"/>
<text x="62" y="197.5" text-anchor="end" fill="#8b949e" font-size="11" dominant-baseline="middle">2001</text>
<line x1="70" y1="197.5" x2="870" y2="197.5" stroke="#21262d" stroke-dasharray="4 4"/>
<text x="62" y="126.3" text-anchor="end" fill="#8b949e" font-size="11" dominant-baseline="middle">3002</text>
<line x1="70" y1="126.3" x2="870" y2="126.3" stroke="#21262d" stroke-dasharray="4 4"/>
<text x="62" y="55.0" text-anchor="end" fill="#8b949e" font-size="11" dominant-baseline="middle">4003</text>
<line x1="70" y1="55.0" x2="870" y2="55.0" stroke="#21262d" stroke-dasharray="4 4"/>

<line x1="70" y1="55" x2="70" y2="340" stroke="#30363d"/>
<line x1="70" y1="340" x2="870" y2="340" stroke="#30363d"/>
<path d="M70.0,118.4 L99.6,111.1 L129.3,108.3 L158.9,105.9 L188.5,102.6 L218.1,99.1 L247.8,96.9 L277.4,95.0 L307.0,93.4 L336.7,91.2 L366.3,89.2 L395.9,87.9 L425.6,86.0 L455.2,84.5 L484.8,82.8 L514.4,80.9 L544.1,78.1 L573.7,76.1 L603.3,73.8 L633.0,71.9 L662.6,70.0 L692.2,67.7 L721.9,66.1 L751.5,63.3 L781.1,61.3 L810.7,58.8 L840.4,57.1 L870.0,55.0 L870.0,340 L70.0,340 Z" fill="#58a6ff" opacity="0.12"/>
<polyline points="70.0,118.4 99.6,111.1 129.3,108.3 158.9,105.9 188.5,102.6 218.1,99.1 247.8,96.9 277.4,95.0 307.0,93.4 336.7,91.2 366.3,89.2 395.9,87.9 425.6,86.0 455.2,84.5 484.8,82.8 514.4,80.9 544.1,78.1 573.7,76.1 603.3,73.8 633.0,71.9 662.6,70.0 692.2,67.7 721.9,66.1 751.5,63.3 781.1,61.3 810.7,58.8 840.4,57.1 870.0,55.0" fill="none" stroke="#58a6ff" stroke-width="2.5" stroke-linecap="round" stroke-linejoin="round"/>
<circle cx="70.0" cy="118.4" r="3" fill="#58a6ff" stroke="#0d1117" stroke-width="1.5"/>
<circle cx="99.6" cy="111.1" r="3" fill="#58a6ff" stroke="#0d1117" stroke-width="1.5"/>
<circle cx="129.3" cy="108.3" r="3" fill="#58a6ff" stroke="#0d1117" stroke-width="1.5"/>
<circle cx="158.9" cy="105.9" r="3" fill="#58a6ff" stroke="#0d1117" stroke-width="1.5"/>
<circle cx="188.5" cy="102.6" r="3" fill="#58a6ff" stroke="#0d1117" stroke-width="1.5"/>
<circle cx="218.1" cy="99.1" r="3" fill="#58a6ff" stroke="#0d1117" stroke-width="1.5"/>
<circle cx="247.8" cy="96.9" r="3" fill="#58a6ff" stroke="#0d1117" stroke-width="1.5"/>
<circle cx="277.4" cy="95.0" r="3" fill="#58a6ff" stroke="#0d1117" stroke-width="1.5"/>
<circle cx="307.0" cy="93.4" r="3" fill="#58a6ff" stroke="#0d1117" stroke-width="1.5"/>
<circle cx="336.7" cy="91.2" r="3" fill="#58a6ff" stroke="#0d1117" stroke-width="1.5"/>
<circle cx="366.3" cy="89.2" r="3" fill="#58a6ff" stroke="#0d1117" stroke-width="1.5"/>
<circle cx="395.9" cy="87.9" r="3" fill="#58a6ff" stroke="#0d1117" stroke-width="1.5"/>
<circle cx="425.6" cy="86.0" r="3" fill="#58a6ff" stroke="#0d1117" stroke-width="1.5"/>
<circle cx="455.2" cy="84.5" r="3" fill="#58a6ff" stroke="#0d1117" stroke-width="1.5"/>
<circle cx="484.8" cy="82.8" r="3" fill="#58a6ff" stroke="#0d1117" stroke-width="1.5"/>
<circle cx="514.4" cy="80.9" r="3" fill="#58a6ff" stroke="#0d1117" stroke-width="1.5"/>
<circle cx="544.1" cy="78.1" r="3" fill="#58a6ff" stroke="#0d1117" stroke-width="1.5"/>
<circle cx="573.7" cy="76.1" r="3" fill="#58a6ff" stroke="#0d1117" stroke-width="1.5"/>
<circle cx="603.3" cy="73.8" r="3" fill="#58a6ff" stroke="#0d1117" stroke-width="1.5"/>
<circle cx="633.0" cy="71.9" r="3" fill="#58a6ff" stroke="#0d1117" stroke-width="1.5"/>
<circle cx="662.6" cy="70.0" r="3" fill="#58a6ff" stroke="#0d1117" stroke-width="1.5"/>
<circle cx="692.2" cy="67.7" r="3" fill="#58a6ff" stroke="#0d1117" stroke-width="1.5"/>
<circle cx="721.9" cy="66.1" r="3" fill="#58a6ff" stroke="#0d1117" stroke-width="1.5"/>
<circle cx="751.5" cy="63.3" r="3" fill="#58a6ff" stroke="#0d1117" stroke-width="1.5"/>
<circle cx="781.1" cy="61.3" r="3" fill="#58a6ff" stroke="#0d1117" stroke-width="1.5"/>
<circle cx="810.7" cy="58.8" r="3" fill="#58a6ff" stroke="#0d1117" stroke-width="1.5"/>
<circle cx="840.4" cy="57.1" r="3" fill="#58a6ff" stroke="#0d1117" stroke-width="1.5"/>
<circle cx="870.0" cy="55.0" r="3" fill="#58a6ff" stroke="#0d1117" stroke-width="1.5"/>
<path d="M70.0,55.0 L99.6,330.6 L129.3,336.3 L158.9,337.0 L188.5,335.8 L218.1,335.5 L247.8,337.1 L277.4,337.6 L307.0,337.9 L336.7,337.3 L366.3,337.4 L395.9,338.3 L425.6,337.6 L455.2,338.0 L484.8,337.9 L514.4,337.5 L544.1,336.4 L573.7,337.4 L603.3,337.0 L633.0,337.6 L662.6,337.4 L692.2,337.2 L721.9,337.9 L751.5,336.3 L781.1,337.4 L810.7,336.9 L840.4,337.8 L870.0,337.3 L870.0,340 L70.0,340 Z" fill="#3fb950" opacity="0.12"/>
<polyline points="70.0,55.0 99.6,330.6 129.3,336.3 158.9,337.0 188.5,335.8 218.1,335.5 247.8,337.1 277.4,337.6 307.0,337.9 336.7,337.3 366.3,337.4 395.9,338.3 425.6,337.6 455.2,338.0 484.8,337.9 514.4,337.5 544.1,336.4 573.7,337.4 603.3,337.0 633.0,337.6 662.6,337.4 692.2,337.2 721.9,337.9 751.5,336.3 781.1,337.4 810.7,336.9 840.4,337.8 870.0,337.3" fill="none" stroke="#3fb950" stroke-width="2.5" stroke-linecap="round" stroke-linejoin="round"/>
<circle cx="70.0" cy="55.0" r="3" fill="#3fb950" stroke="#0d1117" stroke-width="1.5"/>
<circle cx="99.6" cy="330.6" r="3" fill="#3fb950" stroke="#0d1117" stroke-width="1.5"/>
<circle cx="129.3" cy="336.3" r="3" fill="#3fb950" stroke="#0d1117" stroke-width="1.5"/>
<circle cx="158.9" cy="337.0" r="3" fill="#3fb950" stroke="#0d1117" stroke-width="1.5"/>
<circle cx="188.5" cy="335.8" r="3" fill="#3fb950" stroke="#0d1117" stroke-width="1.5"/>
<circle cx="218.1" cy="335.5" r="3" fill="#3fb950" stroke="#0d1117" stroke-width="1.5"/>
<circle cx="247.8" cy="337.1" r="3" fill="#3fb950" stroke="#0d1117" stroke-width="1.5"/>
<circle cx="277.4" cy="337.6" r="3" fill="#3fb950" stroke="#0d1117" stroke-width="1.5"/>
<circle cx="307.0" cy="337.9" r="3" fill="#3fb950" stroke="#0d1117" stroke-width="1.5"/>
<circle cx="336.7" cy="337.3" r="3" fill="#3fb950" stroke="#0d1117" stroke-width="1.5"/>
<circle cx="366.3" cy="337.4" r="3" fill="#3fb950" stroke="#0d1117" stroke-width="1.5"/>
<circle cx="395.9" cy="338.3" r="3" fill="#3fb950" stroke="#0d1117" stroke-width="1.5"/>
<circle cx="425.6" cy="337.6" r="3" fill="#3fb950" stroke="#0d1117" stroke-width="1.5"/>
<circle cx="455.2" cy="338.0" r="3" fill="#3fb950" stroke="#0d1117" stroke-width="1.5"/>
<circle cx="484.8" cy="337.9" r="3" fill="#3fb950" stroke="#0d1117" stroke-width="1.5"/>
<circle cx="514.4" cy="337.5" r="3" fill="#3fb950" stroke="#0d1117" stroke-width="1.5"/>
<circle cx="544.1" cy="336.4" r="3" fill="#3fb950" stroke="#0d1117" stroke-width="1.5"/>
<circle cx="573.7" cy="337.4" r="3" fill="#3fb950" stroke="#0d1117" stroke-width="1.5"/>
<circle cx="603.3" cy="337.0" r="3" fill="#3fb950" stroke="#0d1117" stroke-width="1.5"/>
<circle cx="633.0" cy="337.6" r="3" fill="#3fb950" stroke="#0d1117" stroke-width="1.5"/>
<circle cx="662.6" cy="337.4" r="3" fill="#3fb950" stroke="#0d1117" stroke-width="1.5"/>
<circle cx="692.2" cy="337.2" r="3" fill="#3fb950" stroke="#0d1117" stroke-width="1.5"/>
<circle cx="721.9" cy="337.9" r="3" fill="#3fb950" stroke="#0d1117" stroke-width="1.5"/>
<circle cx="751.5" cy="336.3" r="3" fill="#3fb950" stroke="#0d1117" stroke-width="1.5"/>
<circle cx="781.1" cy="337.4" r="3" fill="#3fb950" stroke="#0d1117" stroke-width="1.5"/>
<circle cx="810.7" cy="336.9" r="3" fill="#3fb950" stroke="#0d1117" stroke-width="1.5"/>
<circle cx="840.4" cy="337.8" r="3" fill="#3fb950" stroke="#0d1117" stroke-width="1.5"/>
<circle cx="870.0" cy="337.3" r="3" fill="#3fb950" stroke="#0d1117" stroke-width="1.5"/>
<text x="70.0" y="390" text-anchor="middle" fill="#8b949e" font-size="11">03-01</text>
<text x="188.5" y="390" text-anchor="middle" fill="#8b949e" font-size="11">03-20</text>
<text x="307.0" y="390" text-anchor="middle" fill="#8b949e" font-size="11">04-17</text>
<text x="425.6" y="390" text-anchor="middle" fill="#8b949e" font-size="11">05-15</text>
<text x="544.1" y="390" text-anchor="middle" fill="#8b949e" font-size="11">06-12</text>
<text x="662.6" y="390" text-anchor="middle" fill="#8b949e" font-size="11">07-10</text>
<text x="781.1" y="390" text-anchor="middle" fill="#8b949e" font-size="11">08-07</text>

<rect x="640" y="402" width="12" height="12" rx="2" fill="#58a6ff"/>
<text x="656" y="412" fill="#8b949e" font-size="11">总数</text>
<rect x="750" y="402" width="12" height="12" rx="2" fill="#3fb950"/>
<text x="766" y="412" fill="#8b949e" font-size="11">每周新增</text>
</svg>